<svg xmlns="http://www.w3.org/2000/svg" xmlns:xlink="http://www.w3.org/1999/xlink" width="500" zoomAndPan="magnify" viewBox="0 0 375 149.999998" height="200" preserveAspectRatio="xMidYMid meet" version="1.0"><defs><g/><clipPath id="35654067f9"><path d="M 0 28 L 86.410156 28 L 86.410156 113.878906 L 0 113.878906 Z M 0 28 " clip-rule="nonzero"/></clipPath></defs><g clip-path="url(#35654067f9)"><path fill="#5271ff" d="M 34.414062 30.875 C 39.671875 27.480469 46.890625 27.472656 52.140625 30.882812 C 57.167969 33.886719 60.351562 39.574219 60.4375 45.417969 C 64.625 45.457031 68.808594 45.394531 72.996094 45.441406 C 75.246094 45.265625 77.371094 47.074219 77.5 49.339844 C 80.335938 69.164062 83.167969 89 85.949219 108.835938 C 86.535156 111.371094 84.332031 114.007812 81.71875 113.824219 C 56.078125 113.863281 30.429688 113.855469 4.78125 113.832031 C 2.183594 114 -0.0078125 111.394531 0.539062 108.867188 C 3.355469 89.042969 6.183594 69.207031 9.03125 49.386719 C 9.175781 47.140625 11.234375 45.28125 13.496094 45.441406 C 17.699219 45.386719 21.898438 45.464844 26.09375 45.433594 C 26.203125 39.582031 29.371094 33.886719 34.414062 30.875 Z M 34.582031 45.402344 C 40.378906 45.464844 46.167969 45.433594 51.964844 45.402344 C 51.730469 40.878906 47.945312 36.742188 43.273438 36.878906 C 38.609375 36.742188 34.808594 40.871094 34.582031 45.402344 Z M 34.582031 45.402344 " fill-opacity="1" fill-rule="nonzero"/></g><g fill="#ffffff" fill-opacity="1"><g transform="translate(15.984337, 102.801001)"><g><path d="M 45.515625 -6.375 C 48.003906 -4.613281 50.722656 -3.1875 53.671875 -2.09375 L 49.859375 5.03125 C 48.378906 4.570312 46.882812 3.945312 45.375 3.15625 L 38.625 -1.328125 C 35.363281 0.128906 31.75 0.859375 27.78125 0.859375 C 20.007812 0.859375 13.9375 -1.410156 9.5625 -5.953125 C 5.195312 -10.503906 3.015625 -16.890625 3.015625 -25.109375 C 3.015625 -33.304688 5.210938 -39.679688 9.609375 -44.234375 C 14.003906 -48.785156 19.96875 -51.0625 27.5 -51.0625 C 34.914062 -51.0625 40.800781 -48.785156 45.15625 -44.234375 C 49.507812 -39.679688 51.6875 -33.304688 51.6875 -25.109375 C 51.6875 -21.242188 51.203125 -17.789062 50.234375 -14.75 C 49.273438 -11.71875 47.703125 -8.925781 45.515625 -6.375 Z M 37.40625 -12.0625 C 39.957031 -15.113281 41.234375 -19.460938 41.234375 -25.109375 C 41.234375 -30.898438 39.957031 -35.222656 37.40625 -38.078125 C 34.863281 -40.929688 31.539062 -42.359375 27.4375 -42.359375 C 23.257812 -42.359375 19.882812 -40.921875 17.3125 -38.046875 C 14.738281 -35.171875 13.453125 -30.859375 13.453125 -25.109375 C 13.453125 -19.210938 14.738281 -14.8125 17.3125 -11.90625 C 19.882812 -9.007812 23.144531 -7.5625 27.09375 -7.5625 C 28.53125 -7.5625 29.898438 -7.800781 31.203125 -8.28125 C 29.148438 -9.632812 27.070312 -10.6875 24.96875 -11.4375 L 27.78125 -17.265625 C 31.132812 -16.097656 34.34375 -14.363281 37.40625 -12.0625 Z M 37.40625 -12.0625 "/></g></g></g><g fill="#000000" fill-opacity="1"><g transform="translate(83.841267, 106.817382)"><g><path d="M 30.984375 0 L 30.984375 -5.859375 C 29.566406 -3.753906 27.695312 -2.097656 25.375 -0.890625 C 23.0625 0.316406 20.632812 0.921875 18.09375 0.921875 C 15.476562 0.921875 13.132812 0.34375 11.0625 -0.8125 C 8.988281 -1.976562 7.484375 -3.597656 6.546875 -5.671875 C 5.617188 -7.753906 5.15625 -10.613281 5.15625 -14.25 L 5.15625 -38.921875 L 15.453125 -38.921875 L 15.453125 -20.984375 C 15.453125 -15.535156 15.640625 -12.203125 16.015625 -10.984375 C 16.398438 -9.765625 17.09375 -8.785156 18.09375 -8.046875 C 19.09375 -7.316406 20.363281 -6.953125 21.90625 -6.953125 C 23.65625 -6.953125 25.226562 -7.425781 26.625 -8.375 C 28.019531 -9.332031 28.96875 -10.523438 29.46875 -11.953125 C 29.96875 -13.378906 30.21875 -16.890625 30.21875 -22.484375 L 30.21875 -38.921875 L 40.578125 -38.921875 L 40.578125 0 Z M 30.984375 0 "/></g></g></g><g fill="#000000" fill-opacity="1"><g transform="translate(129.651702, 106.817382)"><g><path d="M 5.390625 -44.171875 L 5.390625 -53.6875 L 15.671875 -53.6875 L 15.671875 -44.171875 Z M 5.390625 0 L 5.390625 -38.921875 L 15.671875 -38.921875 L 15.671875 0 Z M 5.390625 0 "/></g></g></g><g fill="#000000" fill-opacity="1"><g transform="translate(150.487945, 106.817382)"><g><path d="M 39.296875 -27.390625 L 29.1875 -25.5625 C 28.820312 -27.5625 28.023438 -29.070312 26.796875 -30.09375 C 25.578125 -31.125 24.019531 -31.640625 22.125 -31.640625 C 19.582031 -31.640625 17.546875 -30.765625 16.015625 -29.015625 C 14.492188 -27.273438 13.734375 -24.328125 13.734375 -20.171875 C 13.734375 -15.515625 14.507812 -12.238281 16.0625 -10.34375 C 17.613281 -8.445312 19.679688 -7.5 22.265625 -7.5 C 24.222656 -7.5 25.828125 -8.0625 27.078125 -9.1875 C 28.335938 -10.3125 29.210938 -12.226562 29.703125 -14.9375 L 39.8125 -13.1875 C 37.6875 -3.78125 31.691406 0.921875 21.828125 0.921875 C 16.109375 0.921875 11.566406 -0.878906 8.203125 -4.484375 C 4.835938 -8.085938 3.15625 -13.0625 3.15625 -19.40625 C 3.15625 -25.832031 4.835938 -30.828125 8.203125 -34.390625 C 11.566406 -37.953125 16.15625 -39.734375 21.96875 -39.734375 C 26.726562 -39.734375 30.503906 -38.722656 33.296875 -36.703125 C 36.097656 -34.691406 38.097656 -31.585938 39.296875 -27.390625 Z M 39.296875 -27.390625 "/></g></g></g><g fill="#000000" fill-opacity="1"><g transform="translate(192.197046, 106.817382)"><g><path d="M 5.015625 0 L 5.015625 -53.6875 L 15.3125 -53.6875 L 15.3125 -25.203125 L 27.390625 -38.921875 L 40.0625 -38.921875 L 26.703125 -24.6875 L 40.9375 0 L 29.84375 0 L 20.109375 -17.46875 L 15.3125 -12.453125 L 15.3125 0 Z M 5.015625 0 "/></g></g></g><g fill="#000000" fill-opacity="1"><g transform="translate(233.906147, 106.817382)"><g><path d="M 4.9375 0 L 4.9375 -53.6875 L 15.234375 -53.6875 L 15.234375 -34.34375 C 18.429688 -37.9375 22.203125 -39.734375 26.546875 -39.734375 C 31.265625 -39.734375 35.164062 -38.023438 38.25 -34.609375 C 41.34375 -31.191406 42.890625 -26.285156 42.890625 -19.890625 C 42.890625 -13.222656 41.3125 -8.085938 38.15625 -4.484375 C 35.007812 -0.878906 31.164062 0.921875 26.625 0.921875 C 24.425781 0.921875 22.25 0.351562 20.09375 -0.78125 C 17.945312 -1.914062 16.070312 -3.5625 14.46875 -5.71875 L 14.46875 0 Z M 15.15625 -20.328125 C 15.15625 -15.929688 16 -12.65625 17.6875 -10.5 C 19.375 -8.351562 21.523438 -7.28125 24.140625 -7.28125 C 26.453125 -7.28125 28.40625 -8.238281 30 -10.15625 C 31.601562 -12.070312 32.40625 -15.132812 32.40625 -19.34375 C 32.40625 -23.800781 31.59375 -27 29.96875 -28.9375 C 28.351562 -30.882812 26.285156 -31.859375 23.765625 -31.859375 C 21.328125 -31.859375 19.28125 -30.910156 17.625 -29.015625 C 15.976562 -27.128906 15.15625 -24.234375 15.15625 -20.328125 Z M 15.15625 -20.328125 "/></g></g></g><g fill="#000000" fill-opacity="1"><g transform="translate(279.716582, 106.817382)"><g><path d="M 30.984375 0 L 30.984375 -5.859375 C 29.566406 -3.753906 27.695312 -2.097656 25.375 -0.890625 C 23.0625 0.316406 20.632812 0.921875 18.09375 0.921875 C 15.476562 0.921875 13.132812 0.34375 11.0625 -0.8125 C 8.988281 -1.976562 7.484375 -3.597656 6.546875 -5.671875 C 5.617188 -7.753906 5.15625 -10.613281 5.15625 -14.25 L 5.15625 -38.921875 L 15.453125 -38.921875 L 15.453125 -20.984375 C 15.453125 -15.535156 15.640625 -12.203125 16.015625 -10.984375 C 16.398438 -9.765625 17.09375 -8.785156 18.09375 -8.046875 C 19.09375 -7.316406 20.363281 -6.953125 21.90625 -6.953125 C 23.65625 -6.953125 25.226562 -7.425781 26.625 -8.375 C 28.019531 -9.332031 28.96875 -10.523438 29.46875 -11.953125 C 29.96875 -13.378906 30.21875 -16.890625 30.21875 -22.484375 L 30.21875 -38.921875 L 40.578125 -38.921875 L 40.578125 0 Z M 30.984375 0 "/></g></g></g><g fill="#000000" fill-opacity="1"><g transform="translate(325.527028, 106.817382)"><g><path d="M 0.515625 -38.921875 L 11.46875 -38.921875 L 20.765625 -11.25 L 29.84375 -38.921875 L 40.5 -38.921875 L 24.3125 5.3125 C 23.144531 8.238281 21.941406 10.390625 20.703125 11.765625 C 19.472656 13.148438 17.953125 14.160156 16.140625 14.796875 C 14.335938 15.429688 12.203125 15.75 9.734375 15.75 C 7.734375 15.75 5.78125 15.550781 3.875 15.15625 L 3 7.140625 C 4.59375 7.429688 6.046875 7.578125 7.359375 7.578125 C 9.753906 7.578125 11.523438 6.875 12.671875 5.46875 C 13.816406 4.070312 14.695312 2.273438 15.3125 0.078125 Z M 0.515625 -38.921875 "/></g></g></g></svg>