<svg xmlns="http://www.w3.org/2000/svg" xmlns:xlink="http://www.w3.org/1999/xlink" width="500" zoomAndPan="magnify" viewBox="0 0 375 374.999991" height="500" preserveAspectRatio="xMidYMid meet" version="1.0"><defs><g/><clipPath id="392de61774"><path d="M 9 3 L 366 3 L 366 358.488281 L 9 358.488281 Z M 9 3 " clip-rule="nonzero"/></clipPath></defs><g clip-path="url(#392de61774)"><path fill="#5271ff" d="M 150.691406 14.15625 C 172.554688 0.0585938 202.546875 0.0273438 224.375 14.1875 C 245.269531 26.6875 258.5 50.316406 258.867188 74.613281 C 276.261719 74.777344 293.664062 74.515625 311.058594 74.707031 C 320.421875 73.976562 329.253906 81.503906 329.785156 90.90625 C 341.582031 173.324219 353.347656 255.777344 364.910156 338.222656 C 367.34375 348.757812 358.179688 359.71875 347.316406 358.953125 C 240.734375 359.121094 134.125 359.089844 27.511719 358.988281 C 16.710938 359.683594 7.613281 348.855469 9.882812 338.359375 C 21.582031 255.945312 33.34375 173.488281 45.175781 91.105469 C 45.777344 81.777344 54.339844 74.042969 63.742188 74.707031 C 81.207031 74.476562 98.667969 74.804688 116.101562 74.675781 C 116.566406 50.347656 129.726562 26.6875 150.691406 14.15625 Z M 151.390625 74.539062 C 175.484375 74.804688 199.542969 74.675781 223.640625 74.539062 C 222.675781 55.742188 206.941406 38.546875 187.511719 39.117188 C 168.125 38.546875 152.324219 55.714844 151.390625 74.539062 Z M 151.390625 74.539062 " fill-opacity="1" fill-rule="nonzero"/></g><g fill="#ffffff" fill-opacity="1"><g transform="translate(74.078555, 313.113692)"><g><path d="M 189.203125 -26.484375 C 199.546875 -19.171875 210.835938 -13.238281 223.078125 -8.6875 L 207.28125 20.921875 C 201.113281 19.023438 194.898438 16.414062 188.640625 13.09375 L 160.59375 -5.546875 C 147.019531 0.523438 131.972656 3.5625 115.453125 3.5625 C 83.179688 3.5625 57.957031 -5.878906 39.78125 -24.765625 C 21.613281 -43.660156 12.53125 -70.191406 12.53125 -104.359375 C 12.53125 -138.429688 21.664062 -164.929688 39.9375 -183.859375 C 58.207031 -202.796875 83 -212.265625 114.3125 -212.265625 C 145.164062 -212.265625 169.628906 -202.796875 187.703125 -183.859375 C 205.785156 -164.929688 214.828125 -138.429688 214.828125 -104.359375 C 214.828125 -88.316406 212.832031 -73.984375 208.84375 -61.359375 C 204.863281 -48.734375 198.316406 -37.109375 189.203125 -26.484375 Z M 155.46875 -50.109375 C 166.09375 -62.828125 171.40625 -80.910156 171.40625 -104.359375 C 171.40625 -128.460938 166.113281 -146.445312 155.53125 -158.3125 C 144.945312 -170.175781 131.113281 -176.109375 114.03125 -176.109375 C 96.664062 -176.109375 82.644531 -170.128906 71.96875 -158.171875 C 61.289062 -146.210938 55.953125 -128.273438 55.953125 -104.359375 C 55.953125 -79.867188 61.289062 -61.597656 71.96875 -49.546875 C 82.644531 -37.492188 96.191406 -31.46875 112.609375 -31.46875 C 118.585938 -31.46875 124.28125 -32.460938 129.6875 -34.453125 C 121.144531 -40.054688 112.507812 -44.421875 103.78125 -47.546875 L 115.453125 -71.75 C 129.410156 -66.90625 142.75 -59.691406 155.46875 -50.109375 Z M 155.46875 -50.109375 "/></g></g></g></svg>